PathFileType	4	(X/Y/Z)	Test12_result.trc
DataRate	CameraRate	NumFrames	NumMarkers	Units	OrigDataRate	OrigDataStartFrame	OrigNumFrames
100	100	4	56	mm	100	432	493
Frame#	Time	PELO			PELA			PELL			PELP			LFEO			LFEA			LFEL			LFEP			LTIO			LTIA			LTIL			LTIP			LFOO			LFOA			LFOL			LFOP			LTOO			LTOA			LTOL			LTOP			RFEO			RFEA			RFEL			RFEP			RTIO			RTIA			RTIL			RTIP			RFOO			RFOA			RFOL			RFOP			RTOO			RTOA			RTOL			RTOP			LASI			RASI			LPSI			RPSI			LTHI			LKNE			LTIB			LANK			LHEE			LTOE			LFMH			LVMH			RTHI			RKNE			RTIB			RANK			RHEE			RTOE			RFMH			RVMH		
		X1	Y1	Z1	X2	Y2	Z2	X3	Y3	Z3	X4	Y4	Z4	X5	Y5	Z5	X6	Y6	Z6	X7	Y7	Z7	X8	Y8	Z8	X9	Y9	Z9	X10	Y10	Z10	X11	Y11	Z11	X12	Y12	Z12	X13	Y13	Z13	X14	Y14	Z14	X15	Y15	Z15	X16	Y16	Z16	X17	Y17	Z17	X18	Y18	Z18	X19	Y19	Z19	X20	Y20	Z20	X21	Y21	Z21	X22	Y22	Z22	X23	Y23	Z23	X24	Y24	Z24	X25	Y25	Z25	X26	Y26	Z26	X27	Y27	Z27	X28	Y28	Z28	X29	Y29	Z29	X30	Y30	Z30	X31	Y31	Z31	X32	Y32	Z32	X33	Y33	Z33	X34	Y34	Z34	X35	Y35	Z35	X36	Y36	Z36	X37	Y37	Z37	X38	Y38	Z38	X39	Y39	Z39	X40	Y40	Z40	X41	Y41	Z41	X42	Y42	Z42	X43	Y43	Z43	X44	Y44	Z44	X45	Y45	Z45	X46	Y46	Z46	X47	Y47	Z47	X48	Y48	Z48	X49	Y49	Z49	X50	Y50	Z50	X51	Y51	Z51	X52	Y52	Z52	X53	Y53	Z53	X54	Y54	Z54	X55	Y55	Z55	X56	Y56	Z56
	
494	4.930000	2389.643488	866.627217	-173.488294	2550.253240	848.899874	-160.239370	2403.937312	875.620912	-334.733507	2406.539455	1027.531076	-163.015838	2551.944764	495.024451	-252.335544	2926.632295	652.166441	-281.243861	2526.056096	482.006465	-658.633995	2394.276946	870.599976	-254.321756	2559.825719	91.046544	-234.462550	2942.664800	99.821798	-205.163467	2589.471006	74.694268	-617.030498	2552.342173	474.648468	-251.434098	2676.432341	76.955762	-253.528662	2681.001230	243.084354	-254.082556	2664.717796	76.726020	-419.307568	2510.719263	81.550740	-241.822847	2731.670091	75.424100	-257.430585	2733.193085	130.800297	-257.615199	2727.765279	75.347543	-312.690237	2676.432321	76.955761	-253.528677	2261.541882	450.051503	-84.340867	2647.305635	337.744101	70.989877	2408.160037	398.083444	-486.034028	2385.010200	862.654435	-92.654772	1961.175162	177.028267	-113.660536	2202.437121	-101.117940	4.763759	2060.657827	107.005883	-480.809040	2246.633246	436.500018	-85.796168	2010.826655	73.087835	-97.686324	2144.754650	158.717977	-64.328194	2044.942239	81.497543	-256.332535	1925.497450	210.850298	-108.698594	2039.269173	27.167013	-94.015562	2083.911806	55.710352	-82.896215	2050.640997	29.970250	-146.897640	2010.826116	73.087835	-97.686301	2451.286516	957.099973	-293.857464	2428.334316	942.658426	-34.937798	2251.803580	970.966682	-240.106921	2241.702367	972.593684	-138.744340	2487.542198	646.881640	-336.032350	2548.258239	493.170782	-310.188578	2544.539706	252.092303	-305.988297	2555.814664	82.344865	-276.382556	2516.958329	56.091822	-232.891858	2691.859596	50.624018	-241.894092	2738.996811	43.178905	-219.368998	2701.574001	40.565478	-292.697178	2290.576849	667.582401	-1.856400	2241.970615	456.988468	-30.720892	2098.309461	339.798023	-30.536842	1942.329874	178.818626	-75.050471	1900.606658	194.096618	-127.916340	1992.722910	58.848559	-116.217734	2019.597880	42.060329	-148.460110	1993.829027	43.367355	-76.543599
495	4.940000	2404.509290	868.167284	-175.424072	2565.167524	850.836236	-162.238511	2418.806453	878.067455	-336.615938	2420.935165	1029.061133	-164.085271	2563.448145	496.067941	-253.074262	2939.189530	649.819139	-280.727505	2539.054714	482.661944	-659.041832	2409.145975	872.587133	-256.234112	2559.456315	91.538611	-234.633042	2942.161120	89.499886	-196.633521	2597.315481	73.753430	-616.942450	2563.246981	475.690129	-252.145335	2676.057954	77.441527	-253.728939	2680.713340	243.568488	-253.812417	2664.356475	77.686372	-419.506908	2510.344956	82.089061	-242.024216	2731.295690	75.892349	-257.630516	2732.847470	131.268004	-257.658355	2727.395203	75.973958	-312.889844	2676.057936	77.441549	-253.728951	2285.027524	448.756531	-83.347980	2673.344246	345.505750	71.838033	2431.842412	397.223248	-485.000842	2399.872701	863.747313	-94.613946	1977.351637	185.875355	-113.965562	2210.428588	-100.030790	-1.459409	2071.801333	118.175668	-481.693596	2269.713817	435.672448	-84.871952	2017.387859	77.780569	-98.144134	2158.241048	150.955162	-63.304397	2053.412262	83.857862	-256.484600	1944.790082	222.749312	-109.105068	2041.586756	29.457651	-94.490487	2088.537861	53.849163	-82.877211	2053.594913	31.483416	-147.270658	2017.387536	77.780576	-98.144136	2465.907655	959.461322	-295.258609	2442.956428	943.568426	-36.495341	2266.303157	972.649099	-241.266505	2256.142945	973.309084	-139.852699	2500.664013	648.349625	-336.683305	2559.970967	494.157096	-310.938421	2550.278939	253.203697	-307.173675	2556.148265	82.891098	-276.626699	2517.115953	56.361266	-233.420417	2691.943521	50.927056	-242.192667	2739.195890	43.546467	-219.459180	2702.031788	40.421397	-293.623465	2309.707386	666.444803	-2.936613	2265.428896	455.635816	-29.730545	2119.188462	342.725979	-29.944189	1958.845432	187.692254	-75.193350	1919.441593	206.515483	-128.295595	1998.814192	62.485995	-116.951664	2023.674018	44.004257	-148.284668	1999.345660	48.116661	-76.947726
496	4.950000	2419.132011	869.902441	-177.272345	2579.837168	852.978108	-164.130472	2433.434955	880.590016	-338.413505	2435.087023	1030.789330	-165.185473	2573.720821	496.731750	-253.933438	2951.000046	646.110052	-280.676141	2550.379994	483.039268	-659.687226	2423.773080	874.709685	-258.060026	2559.058688	91.968369	-234.814216	2941.512220	80.169854	-191.299079	2601.937307	72.387028	-617.015676	2572.983176	476.367726	-252.971537	2675.644150	77.622793	-253.817619	2680.635014	243.738024	-254.004769	2664.060209	77.783520	-419.603170	2509.933536	82.613696	-242.234324	2730.881195	75.959172	-257.678729	2732.544754	131.330912	-257.741121	2727.019898	76.012743	-312.940571	2675.644304	77.622812	-253.817644	2309.510231	447.744220	-82.436912	2700.396326	354.627813	72.279284	2456.436161	397.270142	-484.018701	2414.490865	865.095066	-96.484578	1995.014245	195.261334	-114.444999	2220.046115	-98.301797	-9.948066	2083.471520	131.851876	-483.089323	2293.808085	435.138385	-84.035084	2026.210222	84.314941	-98.460181	2172.439130	145.964467	-63.476964	2062.809218	87.332209	-256.754569	1965.516522	234.636682	-109.668610	2046.441292	34.207693	-94.724044	2095.184322	54.757518	-83.062879	2058.641048	35.213462	-147.488860	2026.210113	84.314951	-98.460194	2480.291081	961.929209	-296.681293	2457.328446	944.770610	-37.975331	2280.575751	974.481747	-242.336239	2270.369815	974.211512	-140.874822	2512.896408	649.600215	-337.478258	2570.391478	494.778779	-311.804927	2555.019766	254.068973	-308.198676	2556.127055	83.320301	-276.835421	2517.075830	56.428361	-233.840565	2692.093896	50.889925	-242.285913	2739.032225	44.135178	-219.525167	2702.075107	40.450499	-294.223931	2329.252285	665.489631	-3.921718	2289.889722	454.484488	-28.809825	2141.520195	345.780630	-29.299911	1976.958250	196.897489	-75.453978	1939.811733	218.957763	-128.738325	2006.732835	68.554779	-117.323855	2030.082469	46.887786	-147.730731	2006.932743	54.316661	-76.928585
497	4.960000	2433.500757	871.803463	-179.011724	2594.250062	855.280220	-165.899596	2447.805823	883.133616	-340.108878	2449.002608	1032.688193	-166.320014	2582.811269	497.022057	-254.892944	2962.061846	641.102096	-281.149770	2560.007482	483.116810	-660.561507	2438.144314	876.925755	-259.779949	2558.746277	92.282787	-235.004220	2940.988825	71.816695	-188.916473	2603.694211	70.847165	-617.323730	2581.602053	476.682323	-253.893443	2675.305317	77.527436	-253.850917	2680.797261	243.624261	-254.544117	2663.879501	77.212700	-419.646930	2509.600104	83.053581	-242.442831	2730.540724	75.685416	-257.653624	2732.371327	131.051016	-257.884685	2726.732149	75.580511	-312.918955	2675.305691	77.527465	-253.850950	2334.827016	447.112422	-81.636530	2728.181932	365.049300	72.287697	2481.747121	398.296047	-483.121695	2428.856954	866.681084	-98.243447	2014.074244	205.013661	-115.114920	2231.281188	-95.887929	-20.267872	2096.027613	147.626892	-484.864971	2318.760382	434.985567	-83.313482	2037.380004	92.273140	-98.446717	2187.756152	143.592630	-64.576036	2073.274602	91.568869	-256.915438	1987.482481	246.409694	-110.499626	2054.012332	40.894297	-94.429086	2104.137762	58.000769	-83.138737	2065.977319	40.659566	-147.252015	2037.379879	92.273145	-98.446722	2494.430718	964.451206	-298.121275	2471.454291	946.252741	-39.369382	2294.616589	976.440112	-243.313275	2284.386794	975.298507	-141.808490	2524.248964	650.611926	-338.380572	2579.557654	495.038200	-312.767725	2558.873116	254.662474	-309.052718	2555.889977	83.610178	-277.024573	2516.912777	56.366837	-234.165716	2692.174627	50.620916	-242.249083	2738.684596	44.707801	-219.563845	2701.879231	40.517019	-294.571885	2349.134191	664.787994	-4.801449	2315.194319	453.635592	-27.987075	2165.134113	348.983912	-28.664208	1996.538137	206.277576	-75.874642	1961.441319	231.030469	-129.324373	2016.741565	76.397340	-117.125065	2039.405716	50.724173	-146.747800	2017.098636	61.784154	-76.437845
